Coordinates
version=1
nRows=5
nColumns=40
inDegrees=yes

Units are S.I. units (second, meters, Newtons, ...)
If the header above contains a line with 'inDegrees', this indicates whether rotational values are in degrees (yes) or radians (no).

endheader
time	pelvis_tilt	pelvis_list	pelvis_rotation	pelvis_tx	pelvis_ty	pelvis_tz	hip_flexion_r	hip_adduction_r	hip_rotation_r	knee_angle_r	knee_angle_r_beta	ankle_angle_r	subtalar_angle_r	mtp_angle_r	hip_flexion_l	hip_adduction_l	hip_rotation_l	knee_angle_l	knee_angle_l_beta	ankle_angle_l	subtalar_angle_l	mtp_angle_l	lumbar_extension	lumbar_bending	lumbar_rotation	arm_flex_r	arm_add_r	arm_rot_r	elbow_flex_r	pro_sup_r	wrist_flex_r	wrist_dev_r	arm_flex_l	arm_add_l	arm_rot_l	elbow_flex_l	pro_sup_l	wrist_flex_l	wrist_dev_l
      0.62000000	     -7.29089486	     -9.45040568	     -3.35487123	      0.10468021	      0.90804783	      0.28173036	     -6.87717395	     13.98641178	     -0.88630194	      6.67705064	      0.11653652	      7.09566001	    -14.49900939	      0.00000000	     37.01594298	    -15.87720829	    -18.62806057	     17.18193802	      0.29988139	      6.93667049	      9.61672410	      0.00000000	     -0.52065828	      8.09555474	      0.47117908	     15.99507114	     -7.42179836	     15.99507114	     69.66244886	     46.18853484	      0.00000000	      0.00000000	     15.99507114	     -7.42179836	     15.99507114	     69.66244886	     46.18853484	      0.00000000	      0.00000000
      0.62500000	     -7.57691615	     -9.83799099	     -3.39129991	      0.11084938	      0.90629665	      0.28095895	     -7.00340227	     14.32216634	     -0.83761097	      6.76067480	      0.11799603	      7.20627669	    -14.36509246	      0.00000000	     37.51608785	    -16.03145002	    -18.47167092	     16.02993340	      0.27977512	      6.84766236	     10.81269867	      0.00000000	     -0.34369984	      8.50666158	      0.25485464	     16.00981672	     -7.42790346	     16.00981672	     69.67087130	     46.18335660	      0.00000000	      0.00000000	     16.00981672	     -7.42790346	     16.00981672	     69.67087130	     46.18335660	      0.00000000	      0.00000000
      0.63000000	     -7.87669941	    -10.18640997	     -3.40726583	      0.11712270	      0.90454518	      0.28008012	     -7.09830329	     14.60810333	     -0.84024966	      6.86647709	      0.11984263	      7.29075426	    -14.22586937	      0.00000000	     38.01186632	    -16.13048324	    -18.28160595	     14.93503670	      0.26066556	      6.76282606	     11.92600321	      0.00000000	     -0.12940776	      8.88562586	      0.03153367	     16.02387462	     -7.43372239	     16.02387462	     69.67889285	     46.17843808	      0.00000000	      0.00000000	     16.02387462	     -7.43372239	     16.02387462	     69.67889285	     46.17843808	      0.00000000	      0.00000000
      0.63500000	     -8.18835995	    -10.48327498	     -3.39931931	      0.12351205	      0.90278425	      0.27909871	     -7.15117850	     14.82744292	     -0.90484316	      7.03308276	      0.12275045	      7.35926339	    -14.02300003	      0.00000000	     38.50193731	    -16.14973177	    -17.98675354	     13.91399046	      0.24284495	      6.64738911	     12.92254753	      0.00000000	      0.12936607	      9.20660241	     -0.24827511	     16.04426915	     -7.44216184	     16.04426915	     69.69051649	     46.17133418	      0.00000000	      0.00000000	     16.04426915	     -7.44216184	     16.04426915	     69.69051649	     46.17133418	      0.00000000	      0.00000000
      0.64000000	     -8.58774101	    -10.80460702	     -3.18926068	      0.12997549	      0.90076907	      0.27760067	     -6.93650933	     15.03430226	     -1.57992875	      7.49806440	      0.13086591	      7.85550328	    -13.25229161	      0.00000000	     39.07606368	    -15.95942634	    -17.20121945	     12.78382537	      0.22311984	      6.37591763	     13.22367106	      0.00000000	      0.51829976	      9.43796864	     -1.24796593	     16.15792491	     -7.48914942	     16.15792491	     69.75504271	     46.13231437	      0.00000000	      0.00000000	     16.15792491	     -7.48914942	     16.15792491	     69.75504271	     46.13231437	      0.00000000	      0.00000000
